<?xml version="1.0" encoding="UTF-8" standalone="no"?>
<!-- Created with Inkscape (http://www.inkscape.org/) -->

<svg
   xmlns:dc="http://purl.org/dc/elements/1.1/"
   xmlns:cc="http://creativecommons.org/ns#"
   xmlns:rdf="http://www.w3.org/1999/02/22-rdf-syntax-ns#"
   xmlns:svg="http://www.w3.org/2000/svg"
   xmlns="http://www.w3.org/2000/svg"
   xmlns:sodipodi="http://sodipodi.sourceforge.net/DTD/sodipodi-0.dtd"
   xmlns:inkscape="http://www.inkscape.org/namespaces/inkscape"
   width="540"
   height="324"
   id="svg4874"
   version="1.1"
   inkscape:version="0.91+devel r"
   viewBox="0 0 540 324"
   sodipodi:docname="gesture_3f_touch.svg">
  <defs
     id="defs4876" />
  <sodipodi:namedview
     id="base"
     pagecolor="#292929"
     bordercolor="#666666"
     borderopacity="1.0"
     inkscape:pageopacity="1"
     inkscape:pageshadow="2"
     inkscape:zoom="1.1785993"
     inkscape:cx="-19.084613"
     inkscape:cy="11.707485"
     inkscape:document-units="px"
     inkscape:current-layer="g4780"
     showgrid="false"
     showborder="true"
     fit-margin-top="0"
     fit-margin-left="0"
     fit-margin-right="0"
     fit-margin-bottom="0"
     inkscape:snap-bbox="true"
     inkscape:bbox-paths="true"
     inkscape:bbox-nodes="true"
     inkscape:snap-bbox-edge-midpoints="true"
     inkscape:snap-bbox-midpoints="true"
     inkscape:object-paths="true"
     inkscape:snap-intersection-paths="true"
     inkscape:object-nodes="true"
     inkscape:snap-smooth-nodes="true"
     inkscape:snap-midpoints="true"
     inkscape:snap-object-midpoints="true"
     inkscape:snap-center="true"
     showguides="false"
     inkscape:guide-bbox="true"
     inkscape:snap-global="true"
     inkscape:snap-others="false"
     inkscape:snap-page="true">
    <inkscape:grid
       type="xygrid"
       id="grid5451"
       empspacing="8"
       originx="-2.7715014e-06"
       originy="-2.5124622e-06" />
    <sodipodi:guide
       orientation="1,0"
       position="7.9999972,-8.0000025"
       id="guide4063"
       inkscape:locked="false" />
    <sodipodi:guide
       orientation="1,0"
       position="3.9999972,-8.0000025"
       id="guide4065"
       inkscape:locked="false" />
    <sodipodi:guide
       orientation="0,1"
       position="-8.0000027,87.999998"
       id="guide4067"
       inkscape:locked="false" />
    <sodipodi:guide
       orientation="0,1"
       position="-8.0000027,91.999998"
       id="guide4069"
       inkscape:locked="false" />
    <sodipodi:guide
       orientation="0,1"
       position="104,3.9999975"
       id="guide4071"
       inkscape:locked="false" />
    <sodipodi:guide
       orientation="0,1"
       position="-5.0000027,7.9999975"
       id="guide4073"
       inkscape:locked="false" />
    <sodipodi:guide
       orientation="1,0"
       position="91.999996,-8.0000025"
       id="guide4075"
       inkscape:locked="false" />
    <sodipodi:guide
       orientation="1,0"
       position="87.999997,-8.0000025"
       id="guide4077"
       inkscape:locked="false" />
    <sodipodi:guide
       orientation="0,1"
       position="-8.0000027,83.999998"
       id="guide4074"
       inkscape:locked="false" />
    <sodipodi:guide
       orientation="1,0"
       position="11.999997,-8.0000025"
       id="guide4076"
       inkscape:locked="false" />
    <sodipodi:guide
       orientation="0,1"
       position="-5.0000027,11.999997"
       id="guide4078"
       inkscape:locked="false" />
    <sodipodi:guide
       orientation="1,0"
       position="83.999997,-9.0000025"
       id="guide4080"
       inkscape:locked="false" />
    <sodipodi:guide
       position="47.999997,-8.0000025"
       orientation="1,0"
       id="guide4170"
       inkscape:locked="false" />
    <sodipodi:guide
       position="-8.0000027,47.999997"
       orientation="0,1"
       id="guide4172"
       inkscape:locked="false" />
  </sodipodi:namedview>
  <metadata
     id="metadata4879">
    <rdf:RDF>
      <cc:Work
         rdf:about="">
        <dc:format>image/svg+xml</dc:format>
        <dc:type
           rdf:resource="http://purl.org/dc/dcmitype/StillImage" />
        <dc:title></dc:title>
      </cc:Work>
    </rdf:RDF>
  </metadata>
  <g
     inkscape:label="Layer 1"
     inkscape:groupmode="layer"
     id="layer1"
     transform="translate(67.857143,149.49498)">
    <g
       transform="matrix(0,-1,-1,0,373.50506,516.50504)"
       id="g4845"
       style="display:inline">
      <g
         inkscape:export-ydpi="90"
         inkscape:export-xdpi="90"
         inkscape:export-filename="next01.png"
         transform="matrix(-0.9996045,0,0,1,575.94296,-611.00001)"
         id="g4778"
         inkscape:label="Layer 1">
        <g
           transform="matrix(-1,0,0,1,575.99999,611)"
           id="g4780"
           style="display:inline">
          <path
             style="font-style:normal;font-variant:normal;font-weight:normal;font-stretch:normal;font-size:53.6204567px;line-height:125%;font-family:Ubuntu;-inkscape-font-specification:Ubuntu;text-align:end;letter-spacing:0px;word-spacing:0px;writing-mode:lr-tb;text-anchor:end;display:inline;fill:none;fill-opacity:1;stroke:#f7f7f7;stroke-width:4.00079107;stroke-miterlimit:4;stroke-dasharray:none"
             d="m 526.90578,343.72628 c 14.3803,3.85163 8.37809,26.10701 -5.96811,22.26448 l -10e-6,10e-6 -50.91437,-13.63709 67.92084,18.21108 c 15.93089,4.26693 9.28148,28.92202 -6.61162,24.66516 l -10e-6,1e-5 -67.93497,-18.15834 58.38757,15.63874 c 15.85637,4.24702 9.23761,28.78845 -6.58115,24.5515 v -2e-5 l 1e-5,-2e-5 -71.03537,-19.00646 -33.09607,-8.85524 -0.18781,-0.0503 v 0 l -6.91408,-1.85189 18.07353,23.47068 c 8.45364,10.48525 11.9521,17.66446 -3.54852,27.89697 l -43.91145,-37.31132 c -28.38683,-22.97811 -35.17793,-41.86133 -27.95127,-70.42985 10.25002,-40.5206 40.5632,-49.89857 76.24862,-40.34047 4.5224,1.21129 36.24839,9.63672 40.29164,10.71968 14.0412,3.76084 12.54552,13.74563 6.76936,26.96549 z"
             id="path4845-6"
             inkscape:connector-curvature="0"
             sodipodi:nodetypes="ccccccccccccccccccccssscc" />
          <path
             style="color:#000000;display:inline;overflow:visible;visibility:visible;opacity:0.25;fill:#f7f7f7;fill-opacity:1;fill-rule:nonzero;stroke:none;stroke-width:2.51758671;stroke-linecap:butt;stroke-linejoin:miter;stroke-miterlimit:4;stroke-dasharray:none;stroke-dashoffset:0;stroke-opacity:1;marker:none;enable-background:accumulate"
             d="m 571.27587,383.27233 a 35.064884,35.05101 0 0 1 -16.02978,29.39649 35.064884,35.05101 0 0 1 -34.38665,28.3418 35.064884,35.05101 0 0 1 -34.85362,-31.56055 l 29.19904,7.8125 c 15.81876,4.23695 22.4371,-20.30571 6.58073,-24.55274 l -28.91769,-7.74609 a 35.064884,35.05101 0 0 1 0.01,-0.0137 l 38.45466,10.2793 c 15.8931,4.25686 22.54288,-20.39714 6.61199,-24.66407 l -48.41758,-12.98242 a 35.064884,35.05101 0 0 1 0,-0.006 l 31.41086,8.41407 c 14.3462,3.84253 20.34945,-18.414 5.96915,-22.26563 l -31.70199,-8.49023 a 35.064884,35.05101 0 0 1 29.21468,-15.70704 35.064884,35.05101 0 0 1 35.06465,35.05274 35.064884,35.05101 0 0 1 -0.0879,2.45312 35.064884,35.05101 0 0 1 11.8797,26.23828 z"
             id="ellipse4239-1"
             inkscape:connector-curvature="0" />
          <g
             style="display:inline"
             id="g5379"
             transform="matrix(-0.99999722,0,0,-0.99999722,645.25394,919.46958)">
            <path
               style="color:#000000;display:inline;overflow:visible;visibility:visible;fill:none;stroke:#f7f7f7;stroke-width:4.00079107;stroke-linecap:butt;stroke-linejoin:round;stroke-miterlimit:4;stroke-dasharray:none;stroke-dashoffset:0;stroke-opacity:1;marker:none;enable-background:accumulate"
               id="path4116"
               sodipodi:type="arc"
               sodipodi:cx="808.72699"
               sodipodi:cy="244.79436"
               sodipodi:rx="250.36082"
               sodipodi:ry="263.63275"
               sodipodi:start="3.8048178"
               sodipodi:end="5.6286868"
               sodipodi:open="true"
               d="M 611.43997,82.485822 A 250.36082,263.63275 0 0 1 809.81939,-18.835885 250.36082,263.63275 0 0 1 1007.3516,84.304899"
               inkscape:transform-center-x="-17.044876"
               inkscape:transform-center-y="-0.0015034578"
               transform="matrix(0,1,1,0,0,0)" />
            <path
               inkscape:transform-center-y="4.9738279"
               inkscape:transform-center-x="2.0443183"
               inkscape:connector-curvature="0"
               id="path4198"
               d="m 73.559638,1014.0226 14.78221,-18.91287 c 0,0 6.80763,12.50667 9.95238,23.00047 -10.9469,-0.5114 -24.73459,-4.0876 -24.73459,-4.0876 z"
               style="color:#000000;display:inline;overflow:visible;visibility:visible;opacity:1;fill:#f7f7f7;fill-opacity:1;fill-rule:nonzero;stroke:none;stroke-width:3.00059342;marker:none;enable-background:accumulate" />
          </g>
        </g>
      </g>
    </g>
  </g>
</svg>
