<?xml version="1.0" encoding="UTF-8" standalone="no"?>
<svg width="187px" height="176px" viewBox="0 0 187 176" version="1.1" xmlns="http://www.w3.org/2000/svg" xmlns:xlink="http://www.w3.org/1999/xlink" xmlns:sketch="http://www.bohemiancoding.com/sketch/ns">
    <!-- Generator: Sketch 3.4.2 (15855) - http://www.bohemiancoding.com/sketch -->
    <title>launcher-app-focus-ring</title>
    <desc>Created with Sketch.</desc>
    <defs></defs>
    <g id="•-Launcher" stroke="none" stroke-width="1" fill="none" fill-rule="evenodd" sketch:type="MSPage">
        <g id="40gu" sketch:type="MSArtboardGroup" transform="translate(-15.000000, -250.000000)" fill="#E95420">
            <path d="M79.1353463,254 L79.1353463,254 C50.2199442,254 38.1947414,256.685493 29.9431226,264.926849 C21.6897424,273.169965 19,285.18356 19,314.067129 L19,361.932871 C19,390.816338 21.6897456,402.829937 29.9431169,411.07307 C38.1947484,419.314466 50.2200476,422 79.1353463,422 L137.864654,422 C166.77995,422 178.805249,419.314466 187.056881,411.07307 C195.310253,402.829936 198,390.816335 198,361.932871 L198,314.067129 C198,285.183562 195.310257,273.169965 187.056875,264.926849 C178.805256,256.685493 166.780053,254 137.864654,254 L79.1353463,254 Z M79.1353463,250 L137.864654,250 C166.696254,250 180.342914,252.567901 189.883542,262.096662 C199.427539,271.628789 202,285.265604 202,314.067129 L202,361.932871 C202,390.734293 199.427535,404.371109 189.883552,413.903252 C180.342916,423.432054 166.696166,426 137.864654,426 L79.1353463,426 C50.3038315,426 36.6570818,423.432054 27.1164457,413.903252 C17.5724634,404.371109 15,390.734295 15,361.932871 L15,314.067129 C15,285.265602 17.57246,271.628789 27.116456,262.096663 C36.6570831,252.567901 50.3037433,250 79.1353463,250 L79.1353463,250 Z" id="launcher-app-focus-ring" sketch:type="MSShapeGroup"></path>
        </g>
    </g>
</svg>