<?xml version="1.0" encoding="UTF-8" standalone="no"?>
<svg width="172px" height="163px" viewBox="0 0 172 163" version="1.1" xmlns="http://www.w3.org/2000/svg" xmlns:xlink="http://www.w3.org/1999/xlink" xmlns:sketch="http://www.bohemiancoding.com/sketch/ns">
    <!-- Generator: Sketch 3.4.4 (17249) - http://www.bohemiancoding.com/sketch -->
    <title>Shape</title>
    <desc>Created with Sketch.</desc>
    <defs></defs>
    <g id="•-Launcher" stroke="none" stroke-width="1" fill="none" fill-rule="evenodd" sketch:type="MSPage">
        <g id="Artboard-9" sketch:type="MSArtboardGroup" transform="translate(-163.000000, -1436.000000)" fill="#E95420">
            <path d="M221.983432,1440 L221.983432,1440 C195.6127,1440 184.708233,1442.4723 177.107949,1450.10734 C169.476819,1457.77336 167,1468.79245 167,1495.3481 L167,1538.9019 C167,1565.45755 169.476819,1576.47664 177.107949,1584.14266 C184.708233,1591.7777 195.6127,1594.25 221.983432,1594.25 L276.016868,1594.25 C302.387595,1594.25 313.291998,1591.77771 320.892221,1584.14264 C328.523252,1576.47663 331,1565.45769 331,1538.9019 L331,1495.3481 C331,1468.79231 328.523252,1457.77337 320.892221,1450.10736 C313.291998,1442.47229 302.387595,1440 276.016868,1440 L221.983432,1440 Z M221.983432,1436 L276.016868,1436 C302.345315,1436 314.848953,1438.36655 323.727108,1447.2854 C332.633306,1456.23243 335,1468.85167 335,1495.3481 L335,1538.9019 C335,1565.39833 332.633306,1578.01757 323.727108,1586.9646 C314.848953,1595.88345 302.345315,1598.25 276.016868,1598.25 L221.983432,1598.25 C195.654985,1598.25 183.151291,1595.88345 174.273077,1586.96463 C165.366772,1578.0176 163,1565.39822 163,1538.9019 L163,1495.3481 C163,1468.85178 165.366772,1456.2324 174.273077,1447.28537 C183.151291,1438.36655 195.654985,1436 221.983432,1436 L221.983432,1436 Z" id="Shape" sketch:type="MSShapeGroup"></path>
        </g>
    </g>
</svg>